<svg width="849" height="163" viewBox="0 0 849 163" fill="none" xmlns="http://www.w3.org/2000/svg">
<path d="M828.556 162.778V132.111H818.333V127H849V132.111H838.778V162.778H828.556Z" fill="#FF612F"/>
<path d="M772.333 162.778V127H803V132.111H808.111V147.444H803V152.556H782.556V162.778H772.333ZM782.556 147.444H797.889V132.111H782.556V147.444Z" fill="#FF612F"/>
<path d="M741.667 162.778V157.667H736.556V152.556H731.445V137.222H736.556V132.111H741.667V127H767.223V132.111H746.778V137.222H741.667V152.556H746.778V157.667H757V147.444H751.889V142.333H767.223V162.778H741.667Z" fill="#FF612F"/>
<path d="M705.889 162.778V142.333H695.667V137.222H705.889V127H716.111V137.222H726.334V142.333H716.111V162.778H705.889Z" fill="#FF612F"/>
<path d="M654.778 162.778V157.667H649.667V152.556H654.778V147.444H675.222V142.333H654.778V137.222H680.333V142.333H685.444V162.778H654.778ZM659.889 157.667H675.222V152.556H659.889V157.667Z" fill="#FF612F"/>
<path d="M608.778 162.778V127H619.001V137.222H639.445V142.333H644.556V162.778H634.334V142.333H619.001V162.778H608.778Z" fill="#FF612F"/>
<path d="M573 162.778V157.667H567.889V142.333H573V137.222H603.667V142.333H578.111V157.667H603.667V162.778H573Z" fill="#FF612F"/>
<path d="M486.111 162.778V127H496.334V137.222H516.778V142.333H521.889V162.778H511.667V142.333H496.334V162.778H486.111Z" fill="#FF612F"/>
<path d="M460.556 162.778V142.333H450.333V137.222H460.556V127H470.778V137.222H481V142.333H470.778V162.778H460.556Z" fill="#FF612F"/>
<path d="M419.667 132.111V127H429.889V132.111H419.667ZM409.444 162.778V157.667H419.667V142.333H414.555V137.222H429.889V157.667H440.111V162.778H409.444Z" fill="#FF612F"/>
<path d="M373.667 157.667H378.778V162.778H368.555V157.667H363.444V137.222H373.667V157.667ZM383.889 137.222V157.667H378.778V137.222H383.889ZM399.222 137.222V157.667H394.111V162.778H383.889V157.667H389V137.222H399.222Z" fill="#FF612F"/>
<path d="M286.778 162.778V157.667H281.667V142.333H286.778V137.222H312.333V142.333H317.444V152.556H291.889V157.667H312.333V162.778H286.778ZM291.889 147.444H307.222V142.333H291.889V147.444Z" fill="#FF612F"/>
<path d="M245.889 162.778V157.667H240.778V142.333H245.889V137.222H266.333V127H276.556V162.778H245.889ZM251 157.667H266.333V142.333H251V157.667Z" fill="#FF612F"/>
<path d="M205 162.778V157.667H199.889V152.556H205V147.444H225.444V142.333H205V137.222H230.555V142.333H235.666V162.778H205ZM210.111 157.667H225.444V152.556H210.111V157.667Z" fill="#FF612F"/>
<path d="M159 162.778V137.222H189.667V142.333H194.778V162.778H184.556V142.333H179.444V162.778H169.222V142.333H164.111V162.778H159Z" fill="#FF612F"/>
<path d="M779 117V47H839V57H849V87H829V97H839V107H849V117H819V107H809V97H799V117H779ZM799 87H819V77H829V57H799V87Z" fill="#FF612F"/>
<path d="M709 117V107H699V57H709V47H759V57H769V107H759V117H709ZM719 107H749V57H719V107Z" fill="#FF612F"/>
<path d="M649 117V57H629V47H689V57H669V117H649Z" fill="#FF612F"/>
<path d="M548.5 117V67H558.5V57H568.5V47H598.5V57H608.5V67H618.5V117H598.5V97H568.5V117H548.5ZM568.5 87H598.5V67H588.5V57H578.5V67H568.5V87Z" fill="#FF612F"/>
<path d="M468.5 117V47H528.5V57H538.5V87H518.5V97H528.5V107H538.5V117H508.5V107H498.5V97H488.5V117H468.5ZM488.5 87H508.5V77H518.5V57H488.5V87Z" fill="#FF612F"/>
<path d="M398.5 117V107H388.5V57H398.5V47H448.5V57H458.5V107H448.5V117H398.5ZM408.5 107H438.5V57H408.5V107Z" fill="#FF612F"/>
<path d="M318.5 87V77H378.5V87H318.5Z" fill="#FF612F"/>
<path d="M239 117V47H309V57H259V77H299V87H259V107H309V117H239Z" fill="#FF612F"/>
<path d="M159 117V47H179V57H189V67H199V57H209V47H229V117H209V77H199V97H189V77H179V117H159Z" fill="#FF612F"/>
<path d="M80 117V67H90V57H100V47H130V57H140V67H150V117H130V97H100V117H80ZM100 87H130V67H120V57H110V67H100V87Z" fill="#FF612F"/>
<path d="M0 117V47H20V57H30V67H40V77H50V47H70V117H50V97H40V87H30V77H20V117H0Z" fill="#FF612F"/>
<path d="M77 35V0H112V5H87V15H107V20H87V30H112V35H77Z" fill="#FF612F"/>
<path d="M36.5 35V0H46.5V15H61.5V0H71.5V35H61.5V20H46.5V35H36.5Z" fill="#FF612F"/>
<path d="M10 35V5H0V0H30V5H20V35H10Z" fill="#FF612F"/>
</svg>
